Coordinates
version=1
nRows=24
nColumns=24
inDegrees=yes

Units are S.I. units (second, meters, Newtons, ...)
Angles are in degrees.

endheader
time	pelvis_tilt	pelvis_list	pelvis_rotation	pelvis_tx	pelvis_ty	pelvis_tz	hip_flexion_r	hip_adduction_r	hip_rotation_r	knee_angle_r	ankle_angle_r	subtalar_angle_r	mtp_angle_r	hip_flexion_l	hip_adduction_l	hip_rotation_l	knee_angle_l	ankle_angle_l	subtalar_angle_l	mtp_angle_l	lumbar_extension	lumbar_bending	lumbar_rotation
      0.50400000	     -0.49914290	      5.86247249	      2.62809061	     -0.86849292	      0.97852871	      0.29509627	     26.39112779	     -5.13362334	     -5.64347408	     -6.61919490	      8.83682979	     -3.15016204	      0.97515544	    -14.65045287	      9.32396040	      5.68913609	     -7.97382386	     11.03876912	     -4.37564186	      0.25491843	     -0.49315158	     -4.26177953	     -0.56926987
      0.50816667	     -0.61776351	      5.85318429	      2.71870179	     -0.86285450	      0.97793375	      0.29544649	     26.47677226	     -5.10116431	     -5.71988670	     -6.76725300	      8.64728553	     -3.61204064	      6.57757969	    -14.46471366	      9.27261719	      5.45882853	     -8.70169766	     11.08427588	     -4.06246143	      0.79889215	     -0.33489819	     -4.25942894	     -0.55473248
      0.51233333	     -0.66675143	      5.82943689	      2.80319092	     -0.85704630	      0.97745040	      0.29574735	     26.50673679	     -5.07099811	     -5.93350332	     -7.04469472	      8.53614260	     -3.65943896	      6.58685784	    -14.53828964	      9.19576670	      5.43984715	     -9.14052932	     11.01656935	     -3.95101902	      0.81461290	     -0.22960921	     -4.21856949	     -0.67628666
      0.51650000	     -0.74540781	      5.81648571	      2.87279298	     -0.85124478	      0.97694619	      0.29608524	     26.57553542	     -5.04287514	     -6.05950342	     -7.38250613	      8.42017218	     -3.81052390	      6.60303285	    -14.54799904	      9.13393728	      5.36210419	     -9.63309099	     10.92818375	     -3.79666260	      0.84834651	     -0.09793379	     -4.20069580	     -0.76811109
      0.52066667	     -0.80560565	      5.76867703	      2.94444209	     -0.84539075	      0.97650338	      0.29646316	     26.59955540	     -4.97311776	     -6.13173340	     -7.72861040	      8.24379054	     -4.06261517	      6.63117752	    -14.54960397	      9.02737391	      5.24024985	    -10.18056397	     10.86074334	     -3.58139241	      0.91867774	      0.00746596	     -4.14638382	     -0.85858386
      0.52483333	     -0.80673526	      5.73709614	      2.98058232	     -0.83948033	      0.97617285	      0.29683756	     26.57367495	     -4.91669697	     -6.22201076	     -8.14026927	      8.08007956	     -4.22664686	      6.63529238	    -14.63162784	      8.95359645	      5.17159816	    -10.68779636	     10.66646272	     -3.59084421	      0.93841132	      0.05289530	     -4.10464770	     -0.87178444
      0.52900000	     -0.95191655	      5.70370598	      3.06137716	     -0.83359535	      0.97568688	      0.29721865	     26.67579643	     -4.86155643	     -6.17394686	     -8.54122440	      7.79105977	     -4.69594631	      6.68049318	    -14.47292590	      8.86642101	      5.01256141	    -11.36371895	     10.59777072	     -3.33037854	      1.08911769	      0.28643243	     -4.06706353	     -0.99057272
      0.53316667	     -1.01973635	      5.63444855	      3.08920017	     -0.82761288	      0.97532504	      0.29765418	     26.69508470	     -4.74905103	     -6.11230683	     -8.97623867	      7.50718229	     -5.23333242	      6.75904426	    -14.42123187	      8.74803885	      4.82968103	    -11.98182403	     10.44567045	     -3.12717890	      1.37107083	      0.43176438	     -3.97172792	     -1.03858772
      0.53733333	     -1.08165668	      5.56814141	      3.13794332	     -0.82161339	      0.97502636	      0.29807007	     26.68499528	     -4.64678706	     -6.04475686	     -9.39950833	      7.20587518	     -5.78843787	      6.90068921	    -14.35580794	      8.62958252	      4.69454072	    -12.63451077	     10.19749788	     -2.98909612	      1.92739982	      0.56887615	     -3.89361891	     -1.07182451
      0.54150000	     -1.15377562	      5.51268266	      3.17478028	     -0.81554551	      0.97474118	      0.29843187	     26.71644814	     -4.57543191	     -6.10046043	     -9.90049956	      6.78698354	     -5.96360530	      6.91972637	    -14.28909494	      8.54129208	      4.63788395	    -13.26682235	      9.89777194	     -3.02439643	      2.04819017	      0.72124180	     -3.80999352	     -1.07789450
      0.54566667	     -1.27378925	      5.45557685	      3.20730438	     -0.80954701	      0.97441898	      0.29885192	     26.77597947	     -4.48060670	     -5.98496190	    -10.36577746	      6.42009432	     -6.45596310	      6.97249508	    -14.09183493	      8.44958452	      4.48669147	    -14.04622238	      9.64530543	     -2.97267543	      2.35836970	      0.92773521	     -3.74556825	     -1.11935722
      0.54983333	     -1.34294604	      5.35552079	      3.19953437	     -0.80344502	      0.97419330	      0.29931759	     26.77671150	     -4.32424496	     -5.85822116	    -10.84604844	      6.02404547	     -7.09097824	      7.05811211	    -13.95791230	      8.31398357	      4.28554625	    -14.79277331	      9.33425033	     -2.88829422	      2.95069675	      1.09243797	     -3.60104032	     -1.13129418
      0.55400000	     -1.42797566	      5.28314973	      3.23029972	     -0.79733688	      0.97401882	      0.29970323	     26.77266487	     -4.22610494	     -5.81905941	    -11.29326503	      5.56437882	     -7.35767430	      7.09819414	    -13.77948092	      8.21081715	      4.17898658	    -15.58851506	      8.90276666	     -2.94067105	      3.32446614	      1.26969331	     -3.51238285	     -1.11962338
      0.55816667	     -1.46445383	      5.15981339	      3.20885851	     -0.79115847	      0.97392443	      0.30017707	     26.72467698	     -4.05096857	     -5.74981931	    -11.77303516	      5.18230644	     -7.82564312	      7.63898901	    -13.64236366	      8.05004322	      3.95925484	    -16.37389415	      8.35985361	     -2.98960875	      8.80981522	      1.40136939	     -3.34446578	     -1.08009249
      0.56233333	     -1.55071094	      5.06704074	      3.21227333	     -0.78501539	      0.97381326	      0.30058685	     26.72868982	     -3.92644810	     -5.69599608	    -12.25427634	      4.74604851	     -8.11348321	      7.62781130	    -13.41107326	      7.93151040	      3.80223718	    -17.24215256	      7.85995402	     -3.05535683	      8.86235648	      1.58148889	     -3.21561301	     -1.09412410
      0.56650000	     -1.62519411	      4.94120272	      3.19580099	     -0.77885664	      0.97375786	      0.30104585	     26.70401966	     -3.74964171	     -5.57801089	    -12.71517296	      4.37655636	     -8.64311623	      7.60524955	    -13.15902560	      7.77579834	      3.59866759	    -18.16014394	      7.33116186	     -3.07117918	      9.08664308	      1.75729960	     -3.04171576	     -1.06988954
      0.57066667	     -1.66622564	      4.81240892	      3.17014772	     -0.77264385	      0.97378851	      0.30147413	     26.65201926	     -3.58738134	     -5.57426158	    -13.19669607	      3.97032758	     -8.78018621	      7.59117674	    -12.93920877	      7.62315269	      3.42272008	    -19.07325230	      6.69664956	     -3.17950798	      9.17664308	      1.89168270	     -2.85651901	     -1.04863436
      0.57483333	     -1.74392019	      4.67252595	      3.15374760	     -0.76651024	      0.97381066	      0.30195849	     26.60759107	     -3.39136105	     -5.40948654	    -13.62214651	      3.64987148	     -9.41354798	      7.53284652	    -12.59345423	      7.44578580	      3.17466453	    -20.13336895	      6.09942967	     -3.19182496	      9.75483496	      2.07290354	     -2.67808945	     -0.99582599
      0.57900000	     -1.74569745	      4.49413675	      3.11383048	     -0.76031078	      0.97399013	      0.30246978	     26.45479675	     -3.14976629	     -5.28545151	    -13.98774771	      3.17279234	     -9.87706949	      7.16471862	    -12.32238437	      7.22009888	      2.88970319	    -21.18134413	      5.36642347	     -3.26975257	     13.15145332	      2.15909559	     -2.44198893	     -0.94470929
      0.58316667	     -1.82058138	      4.37588896	      3.08865461	     -0.75416198	      0.97406228	      0.30287881	     26.45635279	     -3.01611439	     -5.32100292	    -14.52293400	      2.98093607	     -9.81895482	      7.14815776	    -11.93232793	      7.08020102	      2.69055548	    -22.30100072	      4.60678101	     -3.44933098	     13.25991832	      2.33729257	     -2.27601860	     -0.92189517
      0.58733333	     -1.81726351	      4.21144087	      3.05359877	     -0.74797239	      0.97429942	      0.30331092	     26.34438894	     -2.82694376	     -5.35582354	    -15.00860868	      2.77215697	     -9.88426728	      7.13290724	    -11.61565314	      6.88090942	      2.47671145	    -23.42188906	      3.77440697	     -3.59338168	     13.33385800	      2.41406686	     -2.03742744	     -0.89053056
      0.59150000	     -1.84930290	      4.01568779	      2.99780958	     -0.74186454	      0.97452231	      0.30388689	     26.21981821	     -2.55279163	     -5.14792382	    -15.37693914	      2.55668556	    -10.46843439	      6.92436493	    -11.17354648	      6.62647809	      2.12648069	    -24.68003474	      2.96354717	     -3.66205518	     14.55125490	      2.53562064	     -1.78923435	     -0.82185845
      0.59566667	     -1.88789240	      3.86590739	      2.99198533	     -0.73576088	      0.97476275	      0.30430027	     26.14547135	     -2.39840356	     -5.22674875	    -15.84719165	      2.36988927	    -10.36108941	      6.88693698	    -10.70966537	      6.43151894	      1.92164380	    -25.95226226	      2.04212252	     -3.82305103	     14.74040935	      2.66441567	     -1.59633499	     -0.78176533
      0.59983333	     -1.88255847	      3.66404213	      2.96535899	     -0.72967126	      0.97507875	      0.30479530	     26.00495447	     -2.16398685	     -5.23471020	    -16.28565152	      2.26602400	    -10.49756960	      5.99410363	    -10.25037618	      6.15908944	      1.62622968	    -27.27289602	      1.06403442	     -3.98878428	     19.21018858	      2.73594338	     -1.32234543	     -0.73006531
